<svg preserveAspectRatio="none" overflow="visible" style="display: block;" width="19.945" height="17.9664" viewBox="0 0 19.945 17.9664" fill="none" xmlns="http://www.w3.org/2000/svg">
<path id="Vector" d="M9.2625 17.6764C9.4625 17.8764 9.7125 17.9664 9.9725 17.9664C10.2325 17.9664 10.4825 17.8664 10.6825 17.6764L18.1825 10.1764C20.5325 7.82643 20.5325 4.12643 18.1825 1.76643C15.8825 -0.513573 12.3325 -0.583573 9.9725 1.56643C7.6125 -0.583573 4.0625 -0.523573 1.7625 1.76643C-0.5875 4.12643 -0.5875 7.82643 1.7625 10.1764L9.2625 17.6764ZM3.1825 3.17643C3.9725 2.39643 4.9725 2.00643 5.9825 2.00643C6.9925 2.00643 7.9925 2.39643 8.7725 3.17643L9.2725 3.67643C9.6625 4.06643 10.2925 4.06643 10.6825 3.67643L11.1825 3.17643C12.7425 1.61643 15.2025 1.61643 16.7725 3.17643C18.3325 4.74643 18.3325 7.19643 16.7725 8.75643L9.9825 15.5464L3.1925 8.75643C2.82181 8.39247 2.52736 7.95829 2.32637 7.47925C2.12537 7.00021 2.02184 6.48592 2.02184 5.96643C2.02184 5.44693 2.12537 4.93264 2.32637 4.4536C2.52736 3.97457 2.82181 3.54039 3.1925 3.17643H3.1825Z" fill="white"/>
</svg>
