<svg preserveAspectRatio="none" overflow="visible" style="display: block;" width="68" height="68" viewBox="0 0 68 68" fill="none" xmlns="http://www.w3.org/2000/svg">
<g id="Group 65">
<circle id="Ellipse 3" cx="34" cy="34" r="34" fill="black"/>
<path id="Vector" fill-rule="evenodd" clip-rule="evenodd" d="M26.2197 19.7857C26.6916 17.5688 28.7525 16 31.112 16H36.888C39.2475 16 41.3066 17.5688 41.7803 19.7857C41.8325 20.0298 41.969 20.25 42.1677 20.4109C42.3665 20.5717 42.616 20.6639 42.8761 20.6725H42.9344C45.4141 20.7774 47.3194 21.0685 48.9101 22.0686C49.9123 22.6982 50.7748 23.5071 51.4464 24.4531C52.2824 25.6275 52.65 26.978 52.8268 28.6094C53 30.2052 53 32.2038 53 34.7355V34.8794C53 37.4111 53 39.4114 52.8268 41.0055C52.65 42.6369 52.2824 43.9874 51.4464 45.1635C50.7711 46.1088 49.9096 46.9188 48.9101 47.548C47.6676 48.3282 46.2413 48.6734 44.5127 48.8375C42.8195 49 40.6968 49 37.9997 49H30.0003C27.3032 49 25.1805 49 23.4873 48.8375C21.7587 48.6734 20.3324 48.3298 19.0899 47.548C18.0903 46.9183 17.2287 46.1077 16.5536 45.1618C15.7176 43.9874 15.35 42.6369 15.1732 41.0055C15 39.4114 15 37.4111 15 34.8794V34.7355C15 32.2038 15 30.2052 15.1732 28.6094C15.35 26.978 15.7176 25.6275 16.5536 24.4531C17.2287 23.5072 18.0903 22.6966 19.0899 22.0669C20.6806 21.0685 22.5859 20.7774 25.0656 20.6742L25.0956 20.6725H25.1239C25.384 20.6639 25.6335 20.5717 25.8323 20.4109C26.031 20.25 26.1675 20.0298 26.2197 19.7857ZM31.112 18.5385C29.9808 18.5385 29.0317 19.2882 28.8179 20.2917C28.4732 21.9163 26.9673 23.1957 25.1557 23.2109C22.7732 23.3125 21.4971 23.5917 20.5427 24.1908C19.8347 24.6374 19.2243 25.2116 18.7452 25.8814C18.2574 26.5668 17.964 27.4451 17.8085 28.8717C17.6529 30.3203 17.6512 32.1886 17.6512 34.8083C17.6512 37.428 17.6512 39.2946 17.8102 40.7432C17.964 42.1698 18.2574 43.0482 18.747 43.7352C19.2207 44.402 19.8304 44.9774 20.5445 45.4258C21.2815 45.8878 22.2253 46.1671 23.7506 46.3126C25.2953 46.4598 27.2855 46.4615 30.0727 46.4615H37.9273C40.7127 46.4615 42.7029 46.4615 44.2494 46.3126C45.7747 46.1671 46.7185 45.8895 47.4555 45.4258C48.1696 44.9774 48.7811 44.402 49.2548 43.7335C49.7426 43.0482 50.036 42.1698 50.1915 40.7432C50.3471 39.2946 50.3488 37.4263 50.3488 34.8083C50.3488 32.1903 50.3488 30.3203 50.1898 28.8717C50.036 27.4451 49.7426 26.5668 49.253 25.8814C48.7742 25.211 48.1637 24.6362 47.4555 24.1891C46.5047 23.5917 45.2286 23.3125 42.8425 23.2109C41.0327 23.194 39.5268 21.918 39.1821 20.2917C39.069 19.7912 38.779 19.3435 38.361 19.0241C37.943 18.7046 37.4228 18.5331 36.888 18.5385H31.112ZM34 30.3846C32.9453 30.3846 31.9338 30.7858 31.188 31.4999C30.4422 32.2139 30.0233 33.1824 30.0233 34.1923C30.0233 35.2022 30.4422 36.1707 31.188 36.8848C31.9338 37.5988 32.9453 38 34 38C35.0547 38 36.0662 37.5988 36.812 36.8848C37.5578 36.1707 37.9767 35.2022 37.9767 34.1923C37.9767 33.1824 37.5578 32.2139 36.812 31.4999C36.0662 30.7858 35.0547 30.3846 34 30.3846ZM27.3721 34.1923C27.3721 32.5092 28.0704 30.895 29.3134 29.7049C30.5563 28.5148 32.2422 27.8462 34 27.8462C35.7578 27.8462 37.4437 28.5148 38.6866 29.7049C39.9296 30.895 40.6279 32.5092 40.6279 34.1923C40.6279 35.8754 39.9296 37.4896 38.6866 38.6797C37.4437 39.8699 35.7578 40.5385 34 40.5385C32.2422 40.5385 30.5563 39.8699 29.3134 38.6797C28.0704 37.4896 27.3721 35.8754 27.3721 34.1923ZM43.2791 29.1154C43.2791 28.7788 43.4187 28.4559 43.6673 28.2179C43.9159 27.9799 44.2531 27.8462 44.6047 27.8462H46.3721C46.7237 27.8462 47.0608 27.9799 47.3094 28.2179C47.558 28.4559 47.6977 28.7788 47.6977 29.1154C47.6977 29.452 47.558 29.7748 47.3094 30.0129C47.0608 30.2509 46.7237 30.3846 46.3721 30.3846H44.6047C44.2531 30.3846 43.9159 30.2509 43.6673 30.0129C43.4187 29.7748 43.2791 29.452 43.2791 29.1154Z" fill="white"/>
</g>
</svg>
